# xmcd CD database file
# 
# Track frame offsets:
# 	150
# 	17747
# 	38785
# 	61075
# 	77862
# 	100524
# 	121000
# 	136608
# 	153541
# 	168719
# 
# Disc length: 2823 seconds
# 
# Submitted via: Nero 5.5.9.0
# 
# Revision: 0
# Processed by: cddbd v1.4PL0 Copyright (c) Steve Scherf et al.
#
DISCID=700b050a
DTITLE=Luke Olson - Panhandle Sunset
DYEAR=1900
DGENRE=
TTITLE0=Panhandle Sunset
TTITLE1=Northeast Texas Women
TTITLE2=Rainy Saturday
TTITLE3=Back In The Saddle
TTITLE4=Tumbleweed
TTITLE5=Believe In Me
TTITLE6=Llano
TTITLE7=The Other Side
TTITLE8=Big Road
TTITLE9=City Of Dreams
EXTD=
EXTT0=
EXTT1=
EXTT2=
EXTT3=
EXTT4=
EXTT5=
EXTT6=
EXTT7=
EXTT8=
EXTT9=
PLAYORDER=
